<svg width="78" height="78" viewBox="0 0 78 78" fill="none" xmlns="http://www.w3.org/2000/svg">
<circle cx="38.8906" cy="38.7993" r="38.5874" transform="rotate(180 38.8906 38.7993)" fill="#FF48E7"/>
<path d="M21.5098 36.2253C20.0879 36.2253 18.9352 37.3779 18.9352 38.7998C18.9352 40.2217 20.0879 41.3743 21.5098 41.3743V36.2253ZM58.092 40.6203C59.0974 39.6149 59.0974 37.9847 58.092 36.9793L41.7077 20.595C40.7022 19.5896 39.0721 19.5896 38.0667 20.595C37.0613 21.6004 37.0613 23.2306 38.0667 24.236L52.6305 38.7998L38.0667 53.3636C37.0613 54.369 37.0613 55.9992 38.0667 57.0046C39.0721 58.01 40.7022 58.01 41.7077 57.0046L58.092 40.6203ZM21.5098 38.7998V41.3743H56.2715V38.7998V36.2253H21.5098V38.7998Z" fill="white"/>
</svg>
