<svg width="78" height="78" viewBox="0 0 78 78" fill="none" xmlns="http://www.w3.org/2000/svg">
<circle cx="38.5874" cy="38.5874" r="38.5874" transform="matrix(-1 -8.74228e-08 -8.74228e-08 1 77.625 0.109375)" fill="#FF48E7"/>
<circle cx="38.5874" cy="38.5874" r="38.5874" transform="matrix(-1 -8.74228e-08 -8.74228e-08 1 77.625 0.109375)" fill="#3A28FF"/>
<path d="M19.9229 40.9401C18.4317 40.9401 17.223 39.7314 17.223 38.2402C17.223 36.7491 18.4317 35.5403 19.9229 35.5403V40.9401ZM60.0615 36.3311C61.1158 37.3855 61.1158 39.095 60.0615 40.1494L42.8794 57.3315C41.825 58.3859 40.1155 58.3859 39.0611 57.3315C38.0067 56.2771 38.0067 54.5676 39.0611 53.5132L54.3341 38.2402L39.0611 22.9672C38.0067 21.9129 38.0067 20.2034 39.0611 19.149C40.1155 18.0946 41.825 18.0946 42.8794 19.149L60.0615 36.3311ZM19.9229 38.2402V35.5403H58.1523V38.2402V40.9401H19.9229V38.2402Z" fill="white"/>
</svg>
