<svg width="78" height="78" viewBox="0 0 78 78" fill="none" xmlns="http://www.w3.org/2000/svg">
<circle cx="39.3169" cy="39.1216" r="38.5874" transform="rotate(180 39.3169 39.1216)" fill="#FF48E7"/>
<path d="M20.2019 36.8782C18.7108 36.8782 17.502 38.087 17.502 39.5781C17.502 41.0692 18.7108 42.278 20.2019 42.278V36.8782ZM60.3405 41.4872C61.3949 40.4329 61.3949 38.7234 60.3405 37.669L43.1584 20.4869C42.104 19.4325 40.3945 19.4325 39.3402 20.4869C38.2858 21.5413 38.2858 23.2508 39.3402 24.3051L54.6131 39.5781L39.3402 54.8511C38.2858 55.9055 38.2858 57.615 39.3402 58.6694C40.3945 59.7237 42.104 59.7237 43.1584 58.6694L60.3405 41.4872ZM20.2019 39.5781V42.278H58.4314V39.5781V36.8782H20.2019V39.5781Z" fill="white"/>
</svg>
