<svg width="78" height="78" viewBox="0 0 78 78" fill="none" xmlns="http://www.w3.org/2000/svg">
<circle cx="39.3169" cy="39.0689" r="38.5874" transform="rotate(180 39.3169 39.0689)" fill="#FF48E7"/>
<circle cx="39.3169" cy="39.0689" r="38.5874" transform="rotate(180 39.3169 39.0689)" fill="#2BE886"/>
<path d="M20.2019 36.8255C18.7108 36.8255 17.502 38.0343 17.502 39.5254C17.502 41.0165 18.7108 42.2253 20.2019 42.2253V36.8255ZM60.3405 41.4345C61.3949 40.3801 61.3949 38.6706 60.3405 37.6163L43.1584 20.4342C42.104 19.3798 40.3945 19.3798 39.3402 20.4342C38.2858 21.4885 38.2858 23.198 39.3402 24.2524L54.6131 39.5254L39.3402 54.7984C38.2858 55.8528 38.2858 57.5622 39.3402 58.6166C40.3945 59.671 42.104 59.671 43.1584 58.6166L60.3405 41.4345ZM20.2019 39.5254V42.2253H58.4314V39.5254V36.8255H20.2019V39.5254Z" fill="white"/>
<path d="M20.2019 36.8255C18.7108 36.8255 17.502 38.0343 17.502 39.5254C17.502 41.0165 18.7108 42.2253 20.2019 42.2253V36.8255ZM60.3405 41.4345C61.3949 40.3801 61.3949 38.6706 60.3405 37.6163L43.1584 20.4342C42.104 19.3798 40.3945 19.3798 39.3402 20.4342C38.2858 21.4885 38.2858 23.198 39.3402 24.2524L54.6131 39.5254L39.3402 54.7984C38.2858 55.8528 38.2858 57.5622 39.3402 58.6166C40.3945 59.671 42.104 59.671 43.1584 58.6166L60.3405 41.4345ZM20.2019 39.5254V42.2253H58.4314V39.5254V36.8255H20.2019V39.5254Z" fill="black"/>
</svg>
