<svg width="25" height="25" viewBox="0 0 25 25" fill="none" xmlns="http://www.w3.org/2000/svg">
<path d="M12.4851 0.34375C19.159 0.34375 24.5688 5.75364 24.5688 12.4275C24.5688 19.1013 19.159 24.5112 12.4851 24.5112C5.81126 24.5112 0.401367 19.1013 0.401367 12.4275C0.401367 5.75364 5.81126 0.34375 12.4851 0.34375ZM17.3234 13.4884C16.9065 12.854 16.6057 12.3973 15.4601 12.5785C13.2971 12.9217 13.0567 13.2999 12.954 13.9235L12.925 14.112L12.8947 14.3126C12.7775 15.1379 12.7812 15.4496 13.1606 15.8472C14.6892 17.4519 15.6051 18.6083 15.8831 19.285C16.0184 19.6149 16.3664 20.6142 16.1271 21.6027C17.5939 21.0184 18.8995 20.0916 19.9347 18.8995C20.0677 18.4476 20.1643 17.8845 20.1643 17.203V17.0761C20.1643 15.962 20.1643 15.4533 19.3765 15.0025C19.1233 14.8589 18.8631 14.7279 18.5971 14.6098C18.1536 14.408 17.86 14.2763 17.4636 13.6963C17.4153 13.6274 17.3694 13.5585 17.3234 13.4884ZM12.4851 2.5587C9.6853 2.5587 7.15618 3.72599 5.36053 5.59897C5.57442 5.7476 5.76051 5.95665 5.88859 6.24424C6.1351 6.79647 6.1351 7.36561 6.1351 7.8695C6.1351 8.26585 6.1351 8.64286 6.26198 8.91475C6.43599 9.28692 7.18759 9.44643 7.85099 9.58419C8.08904 9.63494 8.33313 9.68569 8.55547 9.74732C9.16691 9.91649 9.64059 10.4663 10.0188 10.9074C10.1759 11.0898 10.4091 11.3593 10.5263 11.427C10.5868 11.3835 10.7813 11.172 10.8768 10.8252C10.9517 10.5593 10.9299 10.3249 10.8224 10.1968C10.1457 9.3993 10.1832 7.86467 10.3922 7.29794C10.7209 6.40495 11.748 6.47141 12.4996 6.51975C12.78 6.53787 13.0434 6.556 13.2415 6.53062C13.9932 6.43637 14.2252 5.29204 14.3883 5.06849C14.7411 4.58514 15.8214 3.85649 16.4909 3.40698C15.2299 2.84628 13.8651 2.55726 12.4851 2.5587Z" fill="#188CBE"/>
</svg>
