<svg width="25" height="25" viewBox="0 0 25 25" fill="none" xmlns="http://www.w3.org/2000/svg">
<path d="M12.485 0.71875C9.28024 0.71875 6.20672 1.99185 3.94059 4.25797C1.67446 6.5241 0.401367 9.59763 0.401367 12.8024C0.401367 16.0072 1.67446 19.0807 3.94059 21.3469C6.20672 23.613 9.28024 24.8861 12.485 24.8861C15.6898 24.8861 18.7633 23.613 21.0295 21.3469C23.2956 19.0807 24.5687 16.0072 24.5687 12.8024C24.5687 9.59763 23.2956 6.5241 21.0295 4.25797C18.7633 1.99185 15.6898 0.71875 12.485 0.71875ZM21.716 8.7752C22.2549 10.0083 22.5556 11.3705 22.5556 12.8034C22.5556 14.2363 22.2549 15.5986 21.716 16.8316H17.1752C17.3972 15.5824 17.5183 14.2242 17.5183 12.8034C17.5183 11.3826 17.3972 10.0244 17.1752 8.7752H21.716ZM9.46588 12.8034C9.46588 11.3564 9.57688 9.98811 9.77869 8.7752H15.1894C15.3912 9.98811 15.5042 11.3564 15.5042 12.8034C15.5042 14.2504 15.3912 15.6187 15.1894 16.8316H9.78071C9.5789 15.6187 9.46588 14.2504 9.46588 12.8034ZM20.5415 6.76109H16.707C16.2388 5.18895 15.597 3.89532 14.8402 3.01137C17.1189 3.56017 19.135 4.88616 20.5415 6.76109ZM12.485 3.74194C13.3791 3.74194 14.1843 4.91044 14.7373 6.7631H10.2328C10.7857 4.90843 11.591 3.74194 12.485 3.74194ZM10.1299 3.01338C9.37305 3.89532 8.73127 5.19298 8.26508 6.7631H4.4306C5.83658 4.88856 7.8519 3.56262 10.1299 3.01338ZM3.25402 8.7752H7.79485C7.57286 10.0244 7.45177 11.3826 7.45177 12.8034C7.45177 14.2242 7.57286 15.5824 7.79485 16.8316H3.25402C2.69891 15.5613 2.41305 14.1897 2.41447 12.8034C2.41447 11.3705 2.71517 10.0083 3.25402 8.7752ZM4.42858 18.8458H8.26306C8.73127 20.4179 9.37305 21.7115 10.1299 22.5955C7.85117 22.0467 5.83507 20.7207 4.42858 18.8458ZM12.485 21.8649C11.591 21.8649 10.7857 20.6964 10.2328 18.8437H14.7373C14.1803 20.6984 13.3791 21.8649 12.485 21.8649ZM14.8402 22.5935C15.597 21.7115 16.2388 20.4139 16.705 18.8437H20.5395C19.1335 20.7183 17.1182 22.0442 14.8402 22.5935Z" fill="#188CBE"/>
</svg>
