<svg width="1573" height="1013" viewBox="0 0 1573 1013" fill="none" xmlns="http://www.w3.org/2000/svg">
<rect x="9.83594" y="9.77734" width="1552.71" height="992.826" rx="46" fill="url(#paint0_linear_218_358)" stroke="#646464" stroke-width="19"/>
<mask id="mask0_218_358" style="mask-type:alpha" maskUnits="userSpaceOnUse" x="596" y="108" width="829" height="575">
<rect x="596.269" y="108.75" width="828.146" height="573.975" rx="54" fill="black"/>
</mask>
<g mask="url(#mask0_218_358)">
<rect x="596.269" y="108.75" width="828.146" height="573.975" rx="54" fill="black"/>
<rect x="596.269" y="108.75" width="828.146" height="573.975" rx="54" fill="url(#paint1_radial_218_358)"/>
<rect x="596.269" y="-368.34" width="828.146" height="532.18" fill="#323232"/>
<path d="M728.232 146.856C726.857 146.856 725.632 146.603 724.555 146.098C723.485 145.592 722.636 144.895 722.007 144.006C721.378 143.118 721.05 142.1 721.024 140.952H725.11C725.155 141.724 725.479 142.35 726.082 142.83C726.685 143.309 727.402 143.549 728.232 143.549C728.893 143.549 729.477 143.403 729.983 143.112C730.495 142.813 730.894 142.402 731.179 141.876C731.471 141.345 731.617 140.735 731.617 140.048C731.617 139.347 731.467 138.731 731.169 138.2C730.877 137.668 730.472 137.253 729.953 136.955C729.435 136.657 728.841 136.504 728.173 136.498C727.59 136.498 727.022 136.618 726.471 136.858C725.927 137.097 725.502 137.425 725.197 137.84L721.452 137.169L722.396 126.664H734.573V130.107H725.868L725.353 135.097H725.469C725.82 134.604 726.348 134.196 727.055 133.872C727.762 133.547 728.553 133.385 729.428 133.385C730.628 133.385 731.698 133.667 732.638 134.231C733.578 134.796 734.321 135.57 734.865 136.556C735.41 137.535 735.679 138.663 735.673 139.941C735.679 141.283 735.368 142.476 734.739 143.52C734.116 144.558 733.244 145.375 732.122 145.971C731.007 146.561 729.71 146.856 728.232 146.856ZM746.42 147.022C744.747 147.015 743.308 146.603 742.102 145.786C740.902 144.969 739.978 143.786 739.33 142.236C738.688 140.687 738.37 138.822 738.376 136.644C738.376 134.471 738.697 132.62 739.339 131.09C739.988 129.559 740.912 128.396 742.111 127.598C743.318 126.794 744.754 126.392 746.42 126.392C748.087 126.392 749.52 126.794 750.719 127.598C751.925 128.402 752.853 129.569 753.501 131.099C754.15 132.623 754.471 134.471 754.464 136.644C754.464 138.829 754.14 140.696 753.491 142.246C752.849 143.796 751.929 144.979 750.729 145.796C749.529 146.613 748.093 147.022 746.42 147.022ZM746.42 143.53C747.561 143.53 748.473 142.956 749.153 141.808C749.834 140.661 750.171 138.939 750.165 136.644C750.165 135.133 750.009 133.875 749.698 132.87C749.393 131.865 748.959 131.109 748.395 130.603C747.837 130.098 747.179 129.845 746.42 129.845C745.286 129.845 744.378 130.412 743.697 131.547C743.016 132.682 742.672 134.381 742.666 136.644C742.666 138.174 742.818 139.451 743.123 140.476C743.434 141.494 743.872 142.259 744.436 142.771C745 143.277 745.662 143.53 746.42 143.53ZM768.452 126.589H773.409V129.137H768.452V126.589ZM769 141.27H778.887V143.763H769V141.27ZM768.89 145.461H779.545V148.145H768.89V145.461ZM767 123.686H769.931V133.41H767V123.686ZM765.329 132.834C766.37 132.67 767.612 132.451 769.054 132.177C770.515 131.885 771.994 131.584 773.491 131.273L773.738 133.738C772.423 134.049 771.099 134.359 769.766 134.669C768.433 134.98 767.21 135.272 766.096 135.546L765.329 132.834ZM774.231 123.686H777.189V131.602C777.189 131.985 777.226 132.232 777.299 132.341C777.372 132.433 777.545 132.478 777.819 132.478C777.874 132.478 777.965 132.478 778.093 132.478C778.239 132.478 778.394 132.478 778.559 132.478C778.723 132.478 778.878 132.478 779.024 132.478C779.17 132.478 779.271 132.478 779.325 132.478C779.508 132.478 779.645 132.424 779.736 132.314C779.828 132.204 779.892 131.985 779.928 131.657C779.983 131.31 780.019 130.798 780.038 130.123C780.33 130.36 780.731 130.588 781.243 130.808C781.772 131.027 782.247 131.182 782.667 131.273C782.557 132.296 782.384 133.09 782.147 133.656C781.927 134.222 781.617 134.624 781.215 134.861C780.814 135.08 780.302 135.19 779.682 135.19C779.554 135.19 779.38 135.19 779.161 135.19C778.96 135.19 778.741 135.19 778.504 135.19C778.266 135.19 778.038 135.19 777.819 135.19C777.618 135.19 777.445 135.19 777.299 135.19C776.477 135.19 775.838 135.089 775.381 134.889C774.943 134.669 774.642 134.304 774.477 133.793C774.313 133.263 774.231 132.542 774.231 131.629V123.686ZM780.147 125.11L782.256 127.274C781.361 127.804 780.385 128.297 779.325 128.753C778.266 129.192 777.253 129.575 776.285 129.904C776.23 129.593 776.112 129.237 775.929 128.835C775.747 128.434 775.573 128.087 775.409 127.795C775.975 127.557 776.55 127.292 777.134 127C777.719 126.708 778.266 126.407 778.778 126.096C779.307 125.768 779.764 125.439 780.147 125.11ZM771.848 134.423L775.162 134.998C774.907 135.692 774.66 136.358 774.423 136.998C774.204 137.637 773.994 138.194 773.793 138.668L770.944 138.093C771.127 137.582 771.3 136.979 771.465 136.285C771.647 135.592 771.775 134.971 771.848 134.423ZM767.411 136.998H781.188V148.885H778.011V139.682H770.451V148.994H767.411V136.998ZM757.852 124.48H764.206V127.411H760.728V149.049H757.852V124.48ZM763.22 124.48H763.741L764.206 124.371L766.343 125.576C766.124 126.361 765.877 127.201 765.603 128.096C765.348 128.972 765.074 129.84 764.782 130.698C764.508 131.556 764.243 132.35 763.987 133.081C764.827 134.122 765.366 135.117 765.603 136.066C765.841 136.998 765.959 137.856 765.959 138.641C765.978 139.499 765.886 140.23 765.685 140.832C765.485 141.416 765.165 141.864 764.727 142.174C764.526 142.32 764.298 142.439 764.042 142.53C763.786 142.622 763.512 142.695 763.22 142.749C762.983 142.768 762.709 142.786 762.399 142.804C762.106 142.804 761.796 142.795 761.467 142.777C761.449 142.393 761.385 141.937 761.276 141.407C761.166 140.86 761.002 140.394 760.783 140.01C761.002 140.029 761.203 140.038 761.385 140.038C761.586 140.038 761.76 140.038 761.906 140.038C762.216 140.038 762.463 139.965 762.645 139.819C762.809 139.691 762.928 139.49 763.001 139.216C763.074 138.942 763.111 138.614 763.111 138.23C763.093 137.591 762.965 136.861 762.727 136.039C762.49 135.217 761.997 134.341 761.248 133.41C761.449 132.807 761.641 132.14 761.823 131.41C762.006 130.661 762.189 129.913 762.371 129.164C762.554 128.397 762.718 127.694 762.864 127.055C763.01 126.398 763.129 125.859 763.22 125.439V124.48ZM795.513 127.439C796.353 127.548 797.293 127.63 798.334 127.685C799.393 127.722 800.461 127.74 801.539 127.74C802.634 127.722 803.684 127.685 804.688 127.63C805.693 127.557 806.56 127.484 807.29 127.411V130.944C806.45 131.017 805.528 131.081 804.524 131.136C803.52 131.173 802.488 131.191 801.429 131.191C800.37 131.191 799.329 131.173 798.307 131.136C797.302 131.081 796.371 131.017 795.513 130.944V127.439ZM797.704 139.134C797.594 139.59 797.512 140.001 797.457 140.367C797.403 140.713 797.375 141.07 797.375 141.435C797.375 141.727 797.448 142.001 797.594 142.256C797.74 142.494 797.96 142.704 798.252 142.886C798.562 143.051 798.955 143.179 799.43 143.27C799.923 143.343 800.516 143.379 801.21 143.379C802.433 143.379 803.584 143.325 804.661 143.215C805.738 143.087 806.88 142.905 808.085 142.667L808.139 146.365C807.263 146.529 806.25 146.657 805.099 146.748C803.967 146.84 802.625 146.885 801.073 146.885C798.717 146.885 796.964 146.493 795.814 145.708C794.664 144.904 794.089 143.799 794.089 142.393C794.089 141.864 794.125 141.316 794.198 140.75C794.289 140.166 794.408 139.527 794.554 138.833L797.704 139.134ZM791.295 125.603C791.222 125.786 791.14 126.042 791.048 126.37C790.957 126.699 790.866 127.019 790.774 127.329C790.701 127.639 790.647 127.877 790.61 128.041C790.555 128.425 790.464 128.927 790.336 129.548C790.227 130.15 790.108 130.835 789.98 131.602C789.871 132.35 789.761 133.117 789.651 133.903C789.542 134.688 789.451 135.446 789.377 136.176C789.323 136.906 789.295 137.545 789.295 138.093C789.295 138.349 789.295 138.641 789.295 138.97C789.314 139.298 789.35 139.6 789.405 139.874C789.533 139.563 789.67 139.253 789.816 138.942C789.962 138.632 790.108 138.321 790.254 138.011C790.4 137.682 790.528 137.372 790.637 137.08L792.336 138.422C792.08 139.171 791.815 139.974 791.541 140.832C791.286 141.69 791.048 142.503 790.829 143.27C790.628 144.018 790.473 144.639 790.364 145.132C790.327 145.333 790.29 145.561 790.254 145.817C790.236 146.073 790.227 146.274 790.227 146.42C790.227 146.566 790.227 146.739 790.227 146.94C790.245 147.159 790.263 147.36 790.281 147.543L787.104 147.762C786.83 146.812 786.584 145.552 786.365 143.982C786.146 142.393 786.036 140.668 786.036 138.805C786.036 137.783 786.082 136.742 786.173 135.683C786.264 134.624 786.374 133.61 786.502 132.643C786.629 131.657 786.748 130.762 786.858 129.958C786.985 129.155 787.095 128.489 787.186 127.959C787.223 127.576 787.268 127.146 787.323 126.672C787.396 126.179 787.442 125.713 787.46 125.275L791.295 125.603ZM823.532 131.547H834.927V134.861H823.532V131.547ZM811.81 144.365H836.871V147.68H811.81V144.365ZM821.67 123.659H825.203V146.201H821.67V123.659ZM850.484 125.138C850.411 125.485 850.329 125.868 850.237 126.288C850.146 126.69 850.064 127.064 849.991 127.411C849.918 127.813 849.827 128.269 849.717 128.781C849.607 129.274 849.498 129.776 849.388 130.287C849.297 130.78 849.197 131.264 849.087 131.739C848.904 132.524 848.676 133.437 848.402 134.478C848.128 135.519 847.809 136.642 847.444 137.847C847.078 139.034 846.668 140.23 846.211 141.435C845.755 142.64 845.271 143.818 844.759 144.968C844.248 146.1 843.7 147.123 843.116 148.036L839.555 146.611C840.195 145.753 840.788 144.795 841.336 143.735C841.902 142.658 842.413 141.563 842.87 140.449C843.326 139.317 843.728 138.203 844.075 137.107C844.44 135.993 844.75 134.962 845.006 134.012C845.28 133.063 845.49 132.25 845.636 131.574C845.892 130.333 846.092 129.137 846.239 127.986C846.385 126.836 846.439 125.75 846.403 124.727L850.484 125.138ZM859.906 127.904C860.344 128.507 860.792 129.246 861.248 130.123C861.723 130.981 862.188 131.894 862.645 132.862C863.101 133.83 863.512 134.761 863.877 135.655C864.243 136.55 864.526 137.326 864.727 137.984L861.248 139.572C861.084 138.805 860.837 137.956 860.509 137.025C860.198 136.094 859.833 135.153 859.413 134.204C858.993 133.236 858.546 132.323 858.071 131.465C857.614 130.607 857.14 129.885 856.647 129.301L859.906 127.904ZM839.364 130.753C839.857 130.789 840.341 130.808 840.815 130.808C841.308 130.789 841.801 130.771 842.294 130.753C842.751 130.734 843.299 130.707 843.938 130.671C844.577 130.616 845.252 130.561 845.965 130.506C846.695 130.451 847.425 130.397 848.156 130.342C848.886 130.269 849.562 130.214 850.183 130.178C850.803 130.141 851.315 130.123 851.716 130.123C852.702 130.123 853.561 130.287 854.291 130.616C855.021 130.926 855.597 131.465 856.017 132.232C856.455 132.999 856.674 134.039 856.674 135.354C856.674 136.432 856.628 137.6 856.537 138.86C856.446 140.12 856.281 141.325 856.044 142.476C855.825 143.626 855.515 144.603 855.113 145.406C854.675 146.356 854.072 147.013 853.305 147.378C852.556 147.743 851.662 147.926 850.621 147.926C850.11 147.926 849.553 147.88 848.95 147.789C848.348 147.716 847.809 147.634 847.334 147.543L846.759 143.927C847.106 144.018 847.489 144.11 847.909 144.201C848.348 144.292 848.758 144.365 849.142 144.42C849.544 144.475 849.863 144.502 850.1 144.502C850.557 144.502 850.959 144.42 851.306 144.256C851.653 144.073 851.936 143.763 852.155 143.325C852.41 142.795 852.62 142.11 852.785 141.27C852.949 140.43 853.068 139.527 853.141 138.559C853.232 137.573 853.278 136.632 853.278 135.738C853.278 135.007 853.168 134.469 852.949 134.122C852.748 133.775 852.447 133.546 852.045 133.437C851.662 133.309 851.187 133.245 850.621 133.245C850.201 133.245 849.635 133.282 848.923 133.355C848.211 133.41 847.444 133.483 846.622 133.574C845.819 133.647 845.07 133.729 844.376 133.82C843.682 133.912 843.143 133.976 842.76 134.012C842.358 134.085 841.847 134.167 841.226 134.259C840.624 134.332 840.112 134.405 839.692 134.478L839.364 130.753ZM859.413 124.097C859.65 124.426 859.897 124.818 860.152 125.275C860.426 125.731 860.691 126.188 860.947 126.644C861.202 127.101 861.422 127.502 861.604 127.849L859.386 128.808C859.203 128.425 858.993 128.005 858.756 127.548C858.518 127.092 858.272 126.635 858.016 126.179C857.76 125.722 857.505 125.33 857.249 125.001L859.413 124.097ZM862.672 122.864C862.91 123.211 863.165 123.613 863.439 124.07C863.713 124.526 863.978 124.983 864.234 125.439C864.507 125.896 864.717 126.279 864.864 126.589L862.7 127.521C862.408 126.955 862.061 126.316 861.659 125.603C861.257 124.873 860.865 124.252 860.481 123.741L862.672 122.864ZM869.328 134.998C869.748 134.907 870.232 134.797 870.78 134.669C871.327 134.523 871.811 134.386 872.231 134.259C872.688 134.113 873.3 133.921 874.066 133.683C874.833 133.446 875.673 133.209 876.586 132.971C877.518 132.734 878.449 132.533 879.38 132.369C880.33 132.204 881.224 132.122 882.064 132.122C883.507 132.122 884.767 132.396 885.844 132.944C886.94 133.473 887.789 134.24 888.391 135.245C888.994 136.249 889.295 137.445 889.295 138.833C889.295 140.074 889.021 141.206 888.473 142.229C887.944 143.252 887.131 144.146 886.036 144.913C884.94 145.68 883.571 146.301 881.927 146.776C880.302 147.269 878.403 147.579 876.23 147.707L874.779 144.338C876.349 144.302 877.791 144.165 879.106 143.927C880.439 143.69 881.59 143.352 882.557 142.914C883.543 142.457 884.301 141.882 884.831 141.188C885.378 140.494 885.652 139.691 885.652 138.778C885.652 138.084 885.488 137.481 885.159 136.97C884.849 136.441 884.402 136.03 883.817 135.738C883.233 135.446 882.539 135.299 881.736 135.299C881.096 135.299 880.384 135.382 879.599 135.546C878.814 135.71 878.001 135.92 877.162 136.176C876.34 136.432 875.527 136.705 874.724 136.998C873.92 137.29 873.172 137.573 872.478 137.847C871.784 138.121 871.209 138.358 870.752 138.559L869.328 134.998ZM893.382 127.74C893.929 127.722 894.45 127.703 894.943 127.685C895.436 127.649 895.819 127.621 896.093 127.603C896.659 127.548 897.353 127.484 898.175 127.411C898.996 127.338 899.919 127.256 900.941 127.165C901.982 127.073 903.087 126.982 904.255 126.891C905.424 126.781 906.638 126.672 907.898 126.562C908.848 126.489 909.797 126.425 910.747 126.37C911.696 126.297 912.591 126.243 913.431 126.206C914.289 126.151 915.029 126.115 915.649 126.096L915.677 129.602C915.184 129.602 914.618 129.611 913.979 129.63C913.34 129.648 912.7 129.685 912.061 129.739C911.441 129.776 910.884 129.849 910.391 129.958C909.569 130.178 908.802 130.552 908.09 131.081C907.396 131.593 906.784 132.204 906.255 132.917C905.725 133.629 905.314 134.396 905.022 135.217C904.748 136.021 904.611 136.833 904.611 137.655C904.611 138.55 904.767 139.344 905.077 140.038C905.387 140.713 905.816 141.298 906.364 141.791C906.93 142.266 907.588 142.667 908.336 142.996C909.085 143.306 909.888 143.544 910.747 143.708C911.623 143.872 912.527 143.982 913.458 144.037L912.171 147.789C911.021 147.716 909.898 147.533 908.802 147.241C907.725 146.949 906.711 146.547 905.762 146.036C904.83 145.525 904.009 144.904 903.297 144.174C902.585 143.425 902.028 142.576 901.626 141.626C901.224 140.659 901.023 139.581 901.023 138.394C901.023 137.061 901.233 135.847 901.653 134.752C902.073 133.656 902.594 132.697 903.214 131.876C903.835 131.036 904.456 130.388 905.077 129.931C904.566 129.986 903.945 130.059 903.214 130.15C902.502 130.223 901.726 130.314 900.886 130.424C900.065 130.515 899.225 130.616 898.366 130.725C897.508 130.835 896.677 130.963 895.874 131.109C895.089 131.237 894.377 131.364 893.738 131.492L893.382 127.74ZM924.447 148.474C923.899 147.78 923.287 147.077 922.612 146.365C921.936 145.653 921.251 144.959 920.558 144.283C919.864 143.589 919.197 142.969 918.558 142.421L921.407 139.956C922.064 140.485 922.767 141.115 923.516 141.846C924.264 142.558 924.976 143.279 925.652 144.009C926.346 144.74 926.921 145.388 927.378 145.954L924.447 148.474ZM949.344 126.918C951.353 127.156 953.197 127.302 954.877 127.356C956.575 127.393 958.145 127.356 959.588 127.247C960.848 127.137 962.053 126.973 963.203 126.754C964.354 126.535 965.486 126.252 966.6 125.905L967.038 129.055C966.052 129.328 964.984 129.566 963.833 129.767C962.683 129.968 961.505 130.123 960.3 130.232C958.894 130.342 957.269 130.397 955.425 130.397C953.599 130.378 951.636 130.269 949.536 130.068L949.344 126.918ZM948.851 132.67C950.513 132.816 952.101 132.917 953.617 132.971C955.132 133.026 956.557 133.026 957.89 132.971C959.223 132.917 960.437 132.843 961.533 132.752C963.012 132.624 964.281 132.442 965.34 132.204C966.399 131.949 967.321 131.711 968.106 131.492L968.654 134.724C967.832 134.925 966.928 135.117 965.942 135.299C964.956 135.482 963.906 135.637 962.792 135.765C961.624 135.875 960.282 135.966 958.766 136.039C957.269 136.094 955.689 136.112 954.028 136.094C952.366 136.057 950.704 135.993 949.043 135.902L948.851 132.67ZM957.999 127.685C957.871 127.174 957.725 126.672 957.561 126.179C957.397 125.667 957.214 125.147 957.013 124.617L960.711 124.207C960.82 125.065 960.957 125.914 961.122 126.754C961.304 127.576 961.505 128.37 961.724 129.137C961.962 129.904 962.19 130.643 962.409 131.355C962.628 131.976 962.911 132.688 963.258 133.492C963.623 134.277 964.016 135.071 964.436 135.875C964.856 136.66 965.276 137.372 965.696 138.011C965.878 138.267 966.061 138.513 966.244 138.751C966.444 138.97 966.673 139.189 966.928 139.408L965.258 141.928C964.746 141.818 964.107 141.709 963.34 141.599C962.592 141.489 961.806 141.389 960.985 141.298C960.181 141.206 959.442 141.124 958.766 141.051L959.04 138.449C959.606 138.504 960.218 138.559 960.875 138.614C961.551 138.668 962.089 138.723 962.491 138.778C961.761 137.555 961.131 136.358 960.601 135.19C960.09 134.021 959.661 132.935 959.314 131.93C959.095 131.291 958.912 130.744 958.766 130.287C958.62 129.812 958.483 129.374 958.355 128.972C958.246 128.552 958.127 128.123 957.999 127.685ZM954.11 139.024C953.781 139.481 953.498 139.956 953.261 140.449C953.023 140.923 952.905 141.462 952.905 142.065C952.905 143.069 953.37 143.799 954.302 144.256C955.251 144.694 956.63 144.913 958.437 144.913C959.734 144.913 960.957 144.858 962.108 144.749C963.276 144.639 964.345 144.493 965.312 144.311L965.121 147.789C964.171 147.953 963.103 148.081 961.916 148.173C960.729 148.264 959.579 148.31 958.465 148.31C956.639 148.31 955.059 148.118 953.726 147.734C952.412 147.351 951.389 146.757 950.659 145.954C949.928 145.132 949.554 144.073 949.536 142.777C949.518 141.9 949.627 141.115 949.864 140.421C950.12 139.709 950.403 139.024 950.714 138.367L954.11 139.024ZM998.947 145.16C998.308 145.744 997.568 146.228 996.728 146.611C995.888 146.995 994.911 147.187 993.798 147.187C992.775 147.187 991.944 146.83 991.305 146.118C990.684 145.406 990.374 144.384 990.374 143.051C990.374 142.32 990.42 141.535 990.511 140.695C990.62 139.837 990.739 138.979 990.867 138.121C990.995 137.262 991.104 136.45 991.196 135.683C991.305 134.898 991.36 134.195 991.36 133.574C991.36 132.898 991.196 132.396 990.867 132.067C990.538 131.721 990.082 131.547 989.497 131.547C988.858 131.547 988.146 131.775 987.361 132.232C986.576 132.67 985.772 133.236 984.951 133.93C984.129 134.624 983.344 135.363 982.595 136.149C981.865 136.934 981.226 137.682 980.678 138.394L980.651 134.176C980.979 133.811 981.408 133.382 981.938 132.889C982.486 132.396 983.097 131.885 983.773 131.355C984.467 130.826 985.188 130.333 985.937 129.876C986.704 129.402 987.471 129.018 988.237 128.726C989.023 128.434 989.78 128.288 990.511 128.288C991.497 128.288 992.3 128.47 992.921 128.835C993.56 129.182 994.035 129.666 994.345 130.287C994.656 130.89 994.811 131.574 994.811 132.341C994.811 133.053 994.765 133.83 994.674 134.669C994.583 135.491 994.473 136.331 994.345 137.189C994.218 138.048 994.108 138.897 994.017 139.737C993.944 140.577 993.907 141.343 993.907 142.037C993.907 142.402 993.998 142.704 994.181 142.941C994.364 143.16 994.619 143.27 994.948 143.27C995.459 143.27 996.025 143.105 996.646 142.777C997.267 142.43 997.888 141.937 998.509 141.298L998.947 145.16ZM980.021 132.095C979.728 132.131 979.354 132.177 978.898 132.232C978.441 132.287 977.948 132.35 977.419 132.424C976.907 132.497 976.387 132.57 975.857 132.643C975.328 132.716 974.835 132.78 974.378 132.834L974.022 129.328C974.424 129.347 974.798 129.356 975.145 129.356C975.51 129.338 975.93 129.319 976.405 129.301C976.843 129.265 977.364 129.219 977.966 129.164C978.587 129.091 979.208 129.009 979.829 128.918C980.468 128.826 981.061 128.726 981.609 128.616C982.157 128.507 982.586 128.397 982.896 128.288L983.992 129.685C983.828 129.904 983.636 130.178 983.417 130.506C983.216 130.835 983.006 131.173 982.787 131.52C982.568 131.848 982.376 132.14 982.212 132.396L980.596 137.545C980.304 137.965 979.938 138.495 979.5 139.134C979.08 139.773 978.633 140.449 978.158 141.161C977.683 141.873 977.218 142.558 976.761 143.215C976.305 143.872 975.894 144.448 975.529 144.941L973.365 141.955C973.712 141.517 974.104 141.015 974.543 140.449C974.999 139.864 975.474 139.253 975.967 138.614C976.46 137.956 976.944 137.308 977.419 136.669C977.893 136.012 978.332 135.4 978.733 134.834C979.153 134.249 979.5 133.747 979.774 133.327L979.829 132.615L980.021 132.095ZM979.692 126.836C979.692 126.434 979.692 126.033 979.692 125.631C979.692 125.211 979.655 124.791 979.582 124.371L983.581 124.508C983.472 124.928 983.353 125.54 983.225 126.343C983.116 127.128 982.997 128.032 982.869 129.055C982.76 130.077 982.65 131.154 982.54 132.287C982.449 133.4 982.367 134.514 982.294 135.628C982.239 136.742 982.212 137.783 982.212 138.751C982.212 139.499 982.212 140.257 982.212 141.024C982.23 141.791 982.248 142.576 982.267 143.379C982.285 144.183 982.321 145.014 982.376 145.872C982.394 146.109 982.422 146.438 982.458 146.858C982.495 147.296 982.531 147.67 982.568 147.981H978.788C978.825 147.652 978.843 147.287 978.843 146.885C978.861 146.484 978.87 146.173 978.87 145.954C978.888 145.059 978.907 144.228 978.925 143.462C978.943 142.695 978.952 141.882 978.952 141.024C978.971 140.166 978.998 139.171 979.035 138.038C979.053 137.618 979.08 137.089 979.117 136.45C979.153 135.792 979.19 135.08 979.226 134.313C979.281 133.528 979.336 132.734 979.391 131.93C979.445 131.127 979.491 130.378 979.528 129.685C979.582 128.972 979.619 128.37 979.637 127.877C979.674 127.366 979.692 127.019 979.692 126.836ZM1006.75 127C1006.68 127.329 1006.62 127.703 1006.56 128.123C1006.52 128.543 1006.49 128.954 1006.45 129.356C1006.43 129.758 1006.42 130.086 1006.42 130.342C1006.41 130.944 1006.4 131.565 1006.4 132.204C1006.42 132.843 1006.43 133.501 1006.45 134.176C1006.49 134.834 1006.53 135.491 1006.59 136.149C1006.72 137.463 1006.9 138.623 1007.14 139.627C1007.37 140.631 1007.68 141.416 1008.07 141.983C1008.45 142.53 1008.93 142.804 1009.52 142.804C1009.83 142.804 1010.13 142.631 1010.42 142.284C1010.73 141.937 1011.01 141.489 1011.24 140.942C1011.5 140.376 1011.72 139.782 1011.9 139.161C1012.1 138.541 1012.28 137.956 1012.42 137.408L1015.16 140.75C1014.56 142.339 1013.96 143.608 1013.35 144.557C1012.77 145.488 1012.16 146.164 1011.52 146.584C1010.88 146.986 1010.19 147.187 1009.44 147.187C1008.45 147.187 1007.51 146.858 1006.62 146.201C1005.74 145.543 1004.99 144.484 1004.37 143.023C1003.75 141.544 1003.31 139.581 1003.06 137.135C1002.96 136.295 1002.89 135.409 1002.84 134.478C1002.8 133.546 1002.77 132.661 1002.75 131.821C1002.75 130.981 1002.75 130.287 1002.75 129.739C1002.75 129.356 1002.74 128.899 1002.7 128.37C1002.66 127.84 1002.61 127.366 1002.53 126.946L1006.75 127ZM1020.45 127.63C1020.96 128.251 1021.45 129.009 1021.93 129.904C1022.4 130.798 1022.84 131.757 1023.24 132.78C1023.64 133.802 1024 134.852 1024.31 135.929C1024.62 136.988 1024.87 138.029 1025.05 139.052C1025.25 140.056 1025.38 140.978 1025.43 141.818L1021.82 143.215C1021.73 142.101 1021.56 140.887 1021.32 139.572C1021.09 138.258 1020.77 136.934 1020.37 135.601C1019.96 134.268 1019.48 133.008 1018.91 131.821C1018.37 130.634 1017.72 129.611 1016.97 128.753L1020.45 127.63ZM1029.29 128.644C1029.88 128.717 1030.5 128.772 1031.16 128.808C1031.83 128.826 1032.43 128.835 1032.94 128.835C1034.07 128.835 1035.21 128.772 1036.36 128.644C1037.53 128.516 1038.65 128.352 1039.73 128.151C1040.81 127.932 1041.78 127.685 1042.66 127.411L1042.77 130.588C1041.99 130.789 1041.04 130.999 1039.95 131.218C1038.87 131.419 1037.73 131.593 1036.53 131.739C1035.32 131.867 1034.13 131.93 1032.96 131.93C1032.42 131.93 1031.86 131.921 1031.29 131.903C1030.73 131.885 1030.14 131.857 1029.54 131.821L1029.29 128.644ZM1039.95 124.535C1039.84 124.992 1039.69 125.585 1039.51 126.316C1039.33 127.046 1039.12 127.813 1038.88 128.616C1038.66 129.42 1038.42 130.214 1038.17 130.999C1037.77 132.314 1037.24 133.711 1036.58 135.19C1035.92 136.669 1035.21 138.111 1034.44 139.517C1033.68 140.923 1032.9 142.174 1032.12 143.27L1028.8 141.572C1029.42 140.805 1030.03 139.956 1030.64 139.024C1031.24 138.093 1031.81 137.135 1032.33 136.149C1032.86 135.162 1033.34 134.213 1033.76 133.3C1034.2 132.369 1034.54 131.529 1034.8 130.78C1035.15 129.812 1035.45 128.735 1035.7 127.548C1035.98 126.343 1036.13 125.211 1036.17 124.152L1039.95 124.535ZM1046.36 133.053C1046.32 133.638 1046.3 134.222 1046.3 134.806C1046.32 135.372 1046.34 135.957 1046.36 136.559C1046.38 136.979 1046.39 137.518 1046.41 138.175C1046.45 138.814 1046.49 139.499 1046.52 140.23C1046.56 140.942 1046.59 141.626 1046.6 142.284C1046.64 142.923 1046.66 143.434 1046.66 143.818C1046.66 144.658 1046.49 145.424 1046.14 146.118C1045.79 146.794 1045.24 147.333 1044.47 147.734C1043.72 148.136 1042.69 148.337 1041.37 148.337C1040.24 148.337 1039.22 148.163 1038.31 147.817C1037.39 147.488 1036.66 146.995 1036.11 146.337C1035.57 145.662 1035.29 144.822 1035.29 143.818C1035.29 142.923 1035.53 142.119 1036.01 141.407C1036.48 140.677 1037.16 140.111 1038.06 139.709C1038.97 139.289 1040.07 139.079 1041.35 139.079C1042.95 139.079 1044.43 139.307 1045.78 139.764C1047.13 140.202 1048.35 140.768 1049.43 141.462C1050.5 142.156 1051.43 142.85 1052.19 143.544L1050.36 146.474C1049.86 146.036 1049.3 145.543 1048.66 144.995C1048.04 144.448 1047.34 143.936 1046.55 143.462C1045.78 142.987 1044.94 142.594 1044.03 142.284C1043.14 141.973 1042.17 141.818 1041.13 141.818C1040.34 141.818 1039.71 141.973 1039.24 142.284C1038.76 142.594 1038.52 142.996 1038.52 143.489C1038.52 144 1038.73 144.411 1039.13 144.721C1039.55 145.032 1040.13 145.187 1040.88 145.187C1041.5 145.187 1041.99 145.087 1042.36 144.886C1042.72 144.667 1042.98 144.365 1043.13 143.982C1043.27 143.58 1043.35 143.133 1043.35 142.64C1043.35 142.22 1043.33 141.626 1043.29 140.86C1043.25 140.093 1043.21 139.244 1043.15 138.312C1043.12 137.381 1043.08 136.45 1043.04 135.519C1043.01 134.587 1042.97 133.766 1042.93 133.053H1046.36ZM1051.07 134.505C1050.54 134.067 1049.88 133.601 1049.1 133.108C1048.31 132.615 1047.5 132.15 1046.66 131.711C1045.84 131.255 1045.12 130.89 1044.5 130.616L1046.25 127.904C1046.74 128.123 1047.3 128.397 1047.92 128.726C1048.56 129.036 1049.2 129.365 1049.84 129.712C1050.49 130.059 1051.1 130.406 1051.64 130.753C1052.21 131.081 1052.67 131.374 1053.01 131.629L1051.07 134.505ZM1062.05 129.219V130.397H1073.97V129.219H1062.05ZM1062.05 126.179V127.329H1073.97V126.179H1062.05ZM1058.9 124.152H1077.25V132.451H1058.9V124.152ZM1055.89 133.546H1080.16V136.094H1055.89V133.546ZM1062.71 139.244V141.024H1073.5V139.244H1062.71ZM1059.56 136.998H1076.82V143.297H1059.56V136.998ZM1066.38 131.958H1069.75V134.998H1066.38V131.958ZM1066.52 141.983H1069.8V146.228C1069.8 146.922 1069.7 147.451 1069.5 147.817C1069.3 148.182 1068.94 148.456 1068.41 148.638C1067.86 148.821 1067.22 148.921 1066.49 148.939C1065.78 148.976 1064.94 148.994 1063.97 148.994C1063.9 148.611 1063.77 148.182 1063.59 147.707C1063.4 147.232 1063.22 146.821 1063.04 146.474C1063.42 146.493 1063.81 146.511 1064.22 146.529C1064.64 146.529 1065.01 146.529 1065.34 146.529C1065.67 146.511 1065.89 146.502 1066 146.502C1066.2 146.484 1066.33 146.447 1066.41 146.392C1066.48 146.337 1066.52 146.237 1066.52 146.091V141.983ZM1071.01 145.105L1073.2 143.379C1073.95 143.635 1074.76 143.964 1075.64 144.365C1076.51 144.749 1077.35 145.151 1078.16 145.571C1078.98 145.972 1079.66 146.356 1080.21 146.721L1077.86 148.666C1077.38 148.3 1076.75 147.899 1075.97 147.46C1075.2 147.04 1074.38 146.621 1073.5 146.201C1072.63 145.781 1071.79 145.415 1071.01 145.105ZM1061.78 143.352L1064.79 144.557C1064.17 145.087 1063.45 145.616 1062.63 146.146C1061.81 146.657 1060.97 147.132 1060.11 147.57C1059.25 148.008 1058.42 148.383 1057.62 148.693C1057.43 148.492 1057.2 148.246 1056.9 147.953C1056.63 147.661 1056.34 147.369 1056.03 147.077C1055.73 146.785 1055.46 146.557 1055.21 146.392C1056.01 146.155 1056.82 145.872 1057.64 145.543C1058.46 145.214 1059.23 144.868 1059.94 144.502C1060.67 144.119 1061.29 143.735 1061.78 143.352ZM1087.66 136.833H1103.63V139.791H1087.66V136.833ZM1094.07 131.52H1097.36V138.34H1094.07V131.52ZM1087.5 130.314H1106.01V140.887H1102.64V133.273H1087.5V130.314ZM1085.88 130.314H1089.2V143.708C1089.2 144.292 1089.27 144.731 1089.42 145.023C1089.58 145.315 1089.91 145.507 1090.4 145.598C1090.91 145.689 1091.65 145.735 1092.62 145.735C1092.86 145.735 1093.2 145.735 1093.66 145.735C1094.14 145.735 1094.66 145.735 1095.25 145.735C1095.85 145.735 1096.47 145.735 1097.11 145.735C1097.77 145.735 1098.4 145.735 1099 145.735C1099.6 145.735 1100.14 145.735 1100.62 145.735C1101.11 145.735 1101.48 145.735 1101.74 145.735C1102.6 145.735 1103.25 145.653 1103.69 145.488C1104.12 145.306 1104.43 144.959 1104.62 144.448C1104.82 143.936 1104.98 143.169 1105.11 142.147C1105.51 142.402 1106.02 142.649 1106.64 142.886C1107.28 143.105 1107.84 143.261 1108.31 143.352C1108.11 144.74 1107.81 145.826 1107.41 146.611C1107.01 147.415 1106.38 147.981 1105.52 148.31C1104.68 148.638 1103.5 148.803 1101.99 148.803C1101.77 148.803 1101.42 148.803 1100.95 148.803C1100.47 148.803 1099.91 148.803 1099.28 148.803C1098.64 148.803 1097.97 148.803 1097.28 148.803C1096.6 148.803 1095.94 148.803 1095.3 148.803C1094.68 148.803 1094.14 148.803 1093.66 148.803C1093.2 148.803 1092.87 148.803 1092.65 148.803C1090.93 148.803 1089.57 148.656 1088.57 148.364C1087.58 148.072 1086.89 147.561 1086.48 146.83C1086.08 146.1 1085.88 145.059 1085.88 143.708V130.314ZM1090.65 125.193H1099.06V128.014H1089.25L1090.65 125.193ZM1090.24 123.166L1093.77 123.878C1093.08 125.101 1092.28 126.316 1091.39 127.521C1090.49 128.726 1089.49 129.895 1088.37 131.027C1087.28 132.159 1086.06 133.227 1084.7 134.231C1084.52 133.976 1084.29 133.693 1084.02 133.382C1083.75 133.072 1083.45 132.78 1083.14 132.506C1082.85 132.232 1082.58 132.013 1082.32 131.848C1083.58 131.008 1084.71 130.095 1085.72 129.109C1086.72 128.123 1087.6 127.128 1088.35 126.124C1089.11 125.101 1089.74 124.115 1090.24 123.166ZM1097.55 125.193H1098.29L1098.95 125.001L1101.14 126.48C1100.74 127.247 1100.28 128.041 1099.77 128.863C1099.28 129.685 1098.75 130.47 1098.18 131.218C1097.63 131.967 1097.08 132.624 1096.54 133.19C1096.39 132.953 1096.19 132.697 1095.93 132.424C1095.68 132.15 1095.41 131.885 1095.14 131.629C1094.88 131.374 1094.66 131.154 1094.45 130.972C1094.86 130.515 1095.26 129.986 1095.66 129.383C1096.06 128.762 1096.43 128.142 1096.76 127.521C1097.1 126.882 1097.37 126.316 1097.55 125.823V125.193ZM1122.5 124.617C1122.41 125.11 1122.26 125.75 1122.06 126.535C1121.86 127.32 1121.57 128.205 1121.19 129.192C1120.89 129.867 1120.56 130.57 1120.17 131.301C1119.81 132.013 1119.43 132.652 1119.05 133.218C1119.29 133.108 1119.59 133.017 1119.95 132.944C1120.32 132.853 1120.69 132.789 1121.08 132.752C1121.48 132.697 1121.84 132.67 1122.15 132.67C1123.3 132.67 1124.25 132.999 1124.99 133.656C1125.76 134.313 1126.14 135.29 1126.14 136.587C1126.14 136.952 1126.14 137.399 1126.14 137.929C1126.16 138.458 1126.18 139.015 1126.2 139.6C1126.22 140.166 1126.24 140.723 1126.25 141.27C1126.27 141.818 1126.28 142.311 1126.28 142.749H1122.99C1123.03 142.439 1123.05 142.074 1123.05 141.654C1123.07 141.216 1123.08 140.759 1123.08 140.284C1123.1 139.81 1123.1 139.353 1123.1 138.915C1123.12 138.458 1123.13 138.048 1123.13 137.682C1123.13 136.806 1122.89 136.203 1122.42 135.875C1121.96 135.528 1121.45 135.354 1120.89 135.354C1120.12 135.354 1119.34 135.546 1118.56 135.929C1117.79 136.295 1117.14 136.733 1116.61 137.244C1116.21 137.646 1115.8 138.093 1115.38 138.586C1114.98 139.079 1114.54 139.636 1114.07 140.257L1111.14 138.066C1112.32 136.97 1113.34 135.911 1114.2 134.889C1115.08 133.866 1115.82 132.853 1116.42 131.848C1117.02 130.844 1117.52 129.84 1117.9 128.835C1118.17 128.105 1118.39 127.347 1118.56 126.562C1118.74 125.759 1118.85 125.01 1118.89 124.316L1122.5 124.617ZM1112.2 127.137C1112.9 127.247 1113.7 127.329 1114.61 127.384C1115.53 127.439 1116.33 127.466 1117.02 127.466C1118.23 127.466 1119.54 127.439 1120.97 127.384C1122.41 127.329 1123.87 127.238 1125.35 127.11C1126.83 126.964 1128.24 126.781 1129.57 126.562L1129.54 129.739C1128.57 129.867 1127.52 129.986 1126.39 130.095C1125.28 130.187 1124.14 130.269 1122.97 130.342C1121.82 130.397 1120.71 130.442 1119.65 130.479C1118.59 130.497 1117.65 130.506 1116.83 130.506C1116.47 130.506 1116.01 130.506 1115.46 130.506C1114.93 130.488 1114.39 130.47 1113.82 130.451C1113.25 130.415 1112.71 130.378 1112.2 130.342V127.137ZM1133.9 134.916C1133.6 135.007 1133.26 135.126 1132.86 135.272C1132.47 135.4 1132.08 135.537 1131.68 135.683C1131.29 135.811 1130.95 135.939 1130.64 136.066C1129.76 136.413 1128.72 136.833 1127.51 137.326C1126.33 137.819 1125.09 138.394 1123.79 139.052C1122.97 139.49 1122.27 139.919 1121.71 140.339C1121.14 140.759 1120.71 141.188 1120.42 141.626C1120.13 142.046 1119.98 142.512 1119.98 143.023C1119.98 143.407 1120.06 143.726 1120.23 143.982C1120.39 144.219 1120.64 144.411 1120.97 144.557C1121.3 144.703 1121.71 144.804 1122.2 144.858C1122.69 144.913 1123.28 144.941 1123.95 144.941C1125.12 144.941 1126.41 144.877 1127.82 144.749C1129.22 144.603 1130.53 144.411 1131.73 144.174L1131.62 147.707C1131.04 147.78 1130.3 147.853 1129.4 147.926C1128.51 148.017 1127.58 148.081 1126.61 148.118C1125.66 148.154 1124.75 148.173 1123.87 148.173C1122.45 148.173 1121.17 148.036 1120.04 147.762C1118.9 147.488 1118.01 147.022 1117.35 146.365C1116.71 145.689 1116.39 144.767 1116.39 143.599C1116.39 142.649 1116.6 141.791 1117.02 141.024C1117.46 140.257 1118.04 139.563 1118.75 138.942C1119.46 138.321 1120.24 137.764 1121.08 137.271C1121.94 136.76 1122.78 136.295 1123.6 135.875C1124.44 135.436 1125.2 135.062 1125.87 134.752C1126.55 134.441 1127.18 134.167 1127.76 133.93C1128.36 133.674 1128.94 133.419 1129.49 133.163C1130.02 132.926 1130.53 132.697 1131.02 132.478C1131.51 132.241 1132.02 131.994 1132.53 131.739L1133.9 134.916ZM1144.55 131.383V133.081H1156.03V131.383H1144.55ZM1144.55 135.765V137.491H1156.03V135.765H1144.55ZM1144.55 127.028V128.726H1156.03V127.028H1144.55ZM1141.37 124.179H1159.37V140.339H1141.37V124.179ZM1151.53 138.148H1154.9V144.694C1154.9 145.132 1154.97 145.415 1155.1 145.543C1155.24 145.653 1155.57 145.708 1156.08 145.708C1156.19 145.708 1156.36 145.708 1156.6 145.708C1156.86 145.708 1157.14 145.708 1157.45 145.708C1157.76 145.708 1158.05 145.708 1158.33 145.708C1158.6 145.708 1158.81 145.708 1158.96 145.708C1159.27 145.708 1159.51 145.625 1159.67 145.461C1159.83 145.297 1159.95 144.95 1160.03 144.42C1160.1 143.891 1160.15 143.087 1160.19 142.01C1160.43 142.193 1160.72 142.375 1161.07 142.558C1161.43 142.74 1161.81 142.896 1162.19 143.023C1162.59 143.151 1162.93 143.261 1163.2 143.352C1163.09 144.795 1162.9 145.908 1162.63 146.694C1162.35 147.497 1161.95 148.054 1161.42 148.364C1160.89 148.675 1160.17 148.83 1159.26 148.83C1159.11 148.83 1158.91 148.83 1158.66 148.83C1158.42 148.83 1158.15 148.83 1157.86 148.83C1157.57 148.83 1157.27 148.83 1156.96 148.83C1156.67 148.83 1156.4 148.83 1156.16 148.83C1155.93 148.83 1155.74 148.83 1155.62 148.83C1154.54 148.83 1153.7 148.702 1153.1 148.446C1152.51 148.191 1152.1 147.762 1151.86 147.159C1151.64 146.557 1151.53 145.744 1151.53 144.721V138.148ZM1144.85 139.271H1148.36C1148.25 140.513 1148.05 141.654 1147.76 142.695C1147.48 143.717 1147.02 144.639 1146.39 145.461C1145.76 146.283 1144.88 146.995 1143.73 147.597C1142.58 148.218 1141.08 148.739 1139.24 149.159C1139.15 148.848 1138.99 148.51 1138.77 148.145C1138.57 147.798 1138.34 147.442 1138.09 147.077C1137.85 146.73 1137.61 146.447 1137.37 146.228C1138.96 145.936 1140.23 145.58 1141.18 145.16C1142.13 144.721 1142.85 144.219 1143.35 143.653C1143.86 143.087 1144.21 142.448 1144.41 141.736C1144.61 141.006 1144.76 140.184 1144.85 139.271ZM1176.24 127.439C1177.08 127.548 1178.02 127.63 1179.06 127.685C1180.12 127.722 1181.19 127.74 1182.27 127.74C1183.36 127.722 1184.41 127.685 1185.42 127.63C1186.42 127.557 1187.29 127.484 1188.02 127.411V130.944C1187.18 131.017 1186.26 131.081 1185.25 131.136C1184.25 131.173 1183.22 131.191 1182.16 131.191C1181.1 131.191 1180.06 131.173 1179.03 131.136C1178.03 131.081 1177.1 131.017 1176.24 130.944V127.439ZM1178.43 139.134C1178.32 139.59 1178.24 140.001 1178.19 140.367C1178.13 140.713 1178.1 141.07 1178.1 141.435C1178.1 141.727 1178.18 142.001 1178.32 142.256C1178.47 142.494 1178.69 142.704 1178.98 142.886C1179.29 143.051 1179.68 143.179 1180.16 143.27C1180.65 143.343 1181.24 143.379 1181.94 143.379C1183.16 143.379 1184.31 143.325 1185.39 143.215C1186.47 143.087 1187.61 142.905 1188.81 142.667L1188.87 146.365C1187.99 146.529 1186.98 146.657 1185.83 146.748C1184.69 146.84 1183.35 146.885 1181.8 146.885C1179.45 146.885 1177.69 146.493 1176.54 145.708C1175.39 144.904 1174.82 143.799 1174.82 142.393C1174.82 141.864 1174.85 141.316 1174.93 140.75C1175.02 140.166 1175.14 139.527 1175.28 138.833L1178.43 139.134ZM1172.02 125.603C1171.95 125.786 1171.87 126.042 1171.78 126.37C1171.68 126.699 1171.59 127.019 1171.5 127.329C1171.43 127.639 1171.37 127.877 1171.34 128.041C1171.28 128.425 1171.19 128.927 1171.06 129.548C1170.95 130.15 1170.84 130.835 1170.71 131.602C1170.6 132.35 1170.49 133.117 1170.38 133.903C1170.27 134.688 1170.18 135.446 1170.11 136.176C1170.05 136.906 1170.02 137.545 1170.02 138.093C1170.02 138.349 1170.02 138.641 1170.02 138.97C1170.04 139.298 1170.08 139.6 1170.13 139.874C1170.26 139.563 1170.4 139.253 1170.54 138.942C1170.69 138.632 1170.84 138.321 1170.98 138.011C1171.13 137.682 1171.26 137.372 1171.37 137.08L1173.06 138.422C1172.81 139.171 1172.54 139.974 1172.27 140.832C1172.01 141.69 1171.78 142.503 1171.56 143.27C1171.36 144.018 1171.2 144.639 1171.09 145.132C1171.05 145.333 1171.02 145.561 1170.98 145.817C1170.96 146.073 1170.95 146.274 1170.95 146.42C1170.95 146.566 1170.95 146.739 1170.95 146.94C1170.97 147.159 1170.99 147.36 1171.01 147.543L1167.83 147.762C1167.56 146.812 1167.31 145.552 1167.09 143.982C1166.87 142.393 1166.76 140.668 1166.76 138.805C1166.76 137.783 1166.81 136.742 1166.9 135.683C1166.99 134.624 1167.1 133.61 1167.23 132.643C1167.36 131.657 1167.48 130.762 1167.59 129.958C1167.71 129.155 1167.82 128.489 1167.91 127.959C1167.95 127.576 1168 127.146 1168.05 126.672C1168.12 126.179 1168.17 125.713 1168.19 125.275L1172.02 125.603ZM1203.6 124.864H1216.97V128.014H1203.6V124.864ZM1210.53 133.41H1213.9V145.242C1213.9 146.1 1213.79 146.776 1213.57 147.269C1213.37 147.78 1212.97 148.163 1212.37 148.419C1211.76 148.656 1211.03 148.803 1210.15 148.857C1209.27 148.93 1208.22 148.967 1207 148.967C1206.93 148.492 1206.79 147.926 1206.59 147.269C1206.41 146.63 1206.2 146.082 1205.99 145.625C1206.52 145.644 1207.04 145.662 1207.57 145.68C1208.1 145.698 1208.58 145.708 1209 145.708C1209.42 145.689 1209.71 145.68 1209.87 145.68C1210.13 145.68 1210.3 145.644 1210.4 145.571C1210.49 145.479 1210.53 145.342 1210.53 145.16V133.41ZM1202.42 132.478H1217.68V135.601H1202.42V132.478ZM1196.26 135.71L1199.14 132.807L1199.55 132.971V149.076H1196.26V135.71ZM1199.36 129.274L1202.48 130.479C1201.77 131.684 1200.94 132.898 1199.99 134.122C1199.06 135.327 1198.07 136.468 1197.03 137.545C1196.01 138.623 1195 139.563 1194.02 140.367C1193.87 140.129 1193.66 139.837 1193.39 139.49C1193.11 139.125 1192.83 138.76 1192.54 138.394C1192.26 138.029 1192.01 137.737 1191.77 137.518C1192.72 136.861 1193.66 136.094 1194.59 135.217C1195.52 134.323 1196.4 133.373 1197.22 132.369C1198.04 131.346 1198.75 130.314 1199.36 129.274ZM1198.32 123.303L1201.49 124.617C1200.82 125.476 1200.06 126.352 1199.22 127.247C1198.38 128.123 1197.5 128.963 1196.59 129.767C1195.68 130.57 1194.78 131.273 1193.91 131.876C1193.78 131.62 1193.61 131.328 1193.39 130.999C1193.17 130.652 1192.94 130.314 1192.7 129.986C1192.48 129.657 1192.27 129.383 1192.07 129.164C1192.84 128.689 1193.61 128.114 1194.4 127.439C1195.18 126.763 1195.92 126.069 1196.62 125.357C1197.31 124.627 1197.88 123.942 1198.32 123.303ZM1224.72 126.672C1225.72 126.781 1226.86 126.863 1228.12 126.918C1229.38 126.973 1230.73 127 1232.17 127C1233.06 127 1233.99 126.982 1234.94 126.946C1235.9 126.909 1236.84 126.863 1237.73 126.809C1238.63 126.754 1239.42 126.69 1240.11 126.617V130.26C1239.47 130.314 1238.7 130.369 1237.79 130.424C1236.89 130.479 1235.95 130.524 1234.96 130.561C1234 130.579 1233.07 130.588 1232.2 130.588C1230.77 130.588 1229.45 130.561 1228.23 130.506C1227 130.451 1225.83 130.378 1224.72 130.287V126.672ZM1227.02 138.285C1226.89 138.76 1226.78 139.225 1226.69 139.682C1226.6 140.138 1226.56 140.595 1226.56 141.051C1226.56 141.928 1226.99 142.649 1227.87 143.215C1228.76 143.781 1230.2 144.064 1232.17 144.064C1233.41 144.064 1234.61 144.018 1235.76 143.927C1236.91 143.836 1238 143.708 1239.02 143.544C1240.06 143.379 1240.98 143.188 1241.78 142.969L1241.81 146.83C1241.01 147.013 1240.11 147.168 1239.13 147.296C1238.14 147.442 1237.07 147.552 1235.92 147.625C1234.79 147.716 1233.59 147.762 1232.31 147.762C1230.23 147.762 1228.48 147.533 1227.08 147.077C1225.67 146.621 1224.62 145.963 1223.93 145.105C1223.23 144.228 1222.89 143.16 1222.89 141.9C1222.89 141.097 1222.95 140.367 1223.08 139.709C1223.2 139.052 1223.32 138.468 1223.43 137.956L1227.02 138.285ZM1264.9 137.628C1264.9 137.025 1264.75 136.477 1264.44 135.984C1264.14 135.491 1263.7 135.099 1263.09 134.806C1262.51 134.496 1261.78 134.341 1260.9 134.341C1259.92 134.341 1258.96 134.423 1258.03 134.587C1257.11 134.752 1256.29 134.943 1255.56 135.162C1254.85 135.363 1254.26 135.537 1253.78 135.683C1253.38 135.792 1252.93 135.948 1252.44 136.149C1251.96 136.331 1251.53 136.495 1251.12 136.642L1250.08 132.725C1250.56 132.688 1251.07 132.624 1251.62 132.533C1252.16 132.442 1252.66 132.35 1253.1 132.259C1253.77 132.095 1254.54 131.921 1255.4 131.739C1256.27 131.538 1257.22 131.364 1258.25 131.218C1259.27 131.072 1260.31 130.999 1261.37 130.999C1262.83 130.999 1264.11 131.273 1265.2 131.821C1266.32 132.35 1267.18 133.117 1267.8 134.122C1268.43 135.126 1268.74 136.34 1268.74 137.764C1268.74 139.225 1268.42 140.549 1267.78 141.736C1267.14 142.923 1266.23 143.964 1265.07 144.858C1263.9 145.735 1262.52 146.465 1260.93 147.05C1259.34 147.634 1257.6 148.054 1255.7 148.31L1253.73 144.913C1255.42 144.712 1256.96 144.42 1258.33 144.037C1259.72 143.653 1260.89 143.169 1261.86 142.585C1262.85 141.983 1263.6 141.28 1264.11 140.476C1264.64 139.654 1264.9 138.705 1264.9 137.628ZM1254.14 124.48C1254.92 124.645 1255.86 124.8 1256.96 124.946C1258.07 125.092 1259.21 125.22 1260.38 125.33C1261.57 125.439 1262.69 125.53 1263.75 125.603C1264.83 125.658 1265.72 125.695 1266.43 125.713L1265.89 129.082C1265.08 129.027 1264.14 128.954 1263.07 128.863C1261.99 128.772 1260.87 128.671 1259.72 128.562C1258.57 128.434 1257.46 128.306 1256.38 128.178C1255.32 128.032 1254.39 127.895 1253.59 127.767L1254.14 124.48ZM1285.83 139.545L1285.09 130.178L1284.95 126.096H1289.5L1289.36 130.178L1288.62 139.545H1285.83ZM1287.22 146.83C1286.53 146.83 1285.95 146.602 1285.5 146.146C1285.04 145.689 1284.81 145.114 1284.81 144.42C1284.81 143.708 1285.04 143.124 1285.5 142.667C1285.95 142.211 1286.53 141.983 1287.22 141.983C1287.92 141.983 1288.49 142.211 1288.95 142.667C1289.41 143.124 1289.63 143.708 1289.63 144.42C1289.63 145.114 1289.41 145.689 1288.95 146.146C1288.49 146.602 1287.92 146.83 1287.22 146.83Z" fill="#A6A6A6"/>
</g>
<defs>
<linearGradient id="paint0_linear_218_358" x1="786.191" y1="9.77734" x2="786.191" y2="1002.6" gradientUnits="userSpaceOnUse">
<stop stop-color="#5A5A5A"/>
<stop offset="0.475962" stop-color="#6E6E6E"/>
<stop offset="1" stop-color="#535353"/>
</linearGradient>
<radialGradient id="paint1_radial_218_358" cx="0" cy="0" r="1" gradientUnits="userSpaceOnUse" gradientTransform="translate(1010.34 395.737) rotate(90) scale(286.987 414.073)">
<stop stop-color="#2B2B2B"/>
<stop offset="1" stop-color="#0E0E0E"/>
</radialGradient>
</defs>
</svg>
