<svg width="49" height="49" viewBox="0 0 49 49" fill="none" xmlns="http://www.w3.org/2000/svg">
<circle cx="24.0131" cy="24.0131" r="24.0131" transform="matrix(1 8.74228e-08 8.74228e-08 -1 0.34375 48.5693)" fill="#FF48E7"/>
<circle cx="24.0131" cy="24.0131" r="24.0131" transform="matrix(1 8.74228e-08 8.74228e-08 -1 0.34375 48.5693)" fill="#3DC2F2"/>
<path d="M37.9979 25.1005H35.3679V34.5384C35.3679 35.2384 35.0627 36.1114 33.7949 36.1114H27.5029V26.6735H21.211V36.1114H14.919C13.6511 36.1114 13.346 35.2384 13.346 34.5384V25.1005H10.7159C9.77529 25.1005 9.97663 24.5908 10.6216 23.9239L23.2433 11.2896C23.55 10.9719 23.9527 10.8146 24.3569 10.7988C24.7612 10.8146 25.1639 10.9703 25.4706 11.2896L38.0907 23.9223C38.7372 24.5908 38.9386 25.1005 37.9979 25.1005Z" fill="black"/>
<path d="M37.9979 25.1005H35.3679V34.5384C35.3679 35.2384 35.0627 36.1114 33.7949 36.1114H27.5029V26.6735H21.211V36.1114H14.919C13.6511 36.1114 13.346 35.2384 13.346 34.5384V25.1005H10.7159C9.77529 25.1005 9.97663 24.5908 10.6216 23.9239L23.2433 11.2896C23.55 10.9719 23.9527 10.8146 24.3569 10.7988C24.7612 10.8146 25.1639 10.9703 25.4706 11.2896L38.0907 23.9223C38.7372 24.5908 38.9386 25.1005 37.9979 25.1005Z" fill="#003D8E"/>
</svg>
