<svg width="467" height="180" viewBox="0 0 467 180" fill="none" xmlns="http://www.w3.org/2000/svg">
<g filter="url(#filter0_d_218_232)">
<rect x="16.4227" y="13.0829" width="434.125" height="146.897" rx="71.0905" fill="#727272"/>
<rect x="16.4227" y="13.0829" width="434.125" height="146.897" rx="71.0905" fill="url(#paint0_linear_218_232)"/>
<rect x="16.4227" y="13.0829" width="434.125" height="146.897" rx="71.0905" stroke="url(#paint1_linear_218_232)" stroke-width="15.6467"/>
<rect x="32.0695" y="28.7296" width="402.831" height="115.604" rx="55.4438" fill="#727272"/>
<rect x="32.0695" y="28.7296" width="402.831" height="115.604" rx="55.4438" fill="url(#paint2_radial_218_232)"/>
<rect x="32.0695" y="28.7296" width="402.831" height="115.604" rx="55.4438" stroke="#CDCDCD" stroke-width="15.6467"/>
<rect x="32.0695" y="28.7296" width="402.831" height="115.604" rx="55.4438" stroke="#49B34A" stroke-width="15.6467"/>
<g filter="url(#filter1_d_218_232)">
<path d="M119.235 64.4053H144.381V70.3311H119.235V64.4053ZM132.271 80.4823H138.609V102.743C138.609 104.357 138.403 105.628 137.991 106.556C137.613 107.518 136.857 108.239 135.724 108.72C134.59 109.167 133.199 109.441 131.55 109.544C129.901 109.682 127.926 109.751 125.624 109.751C125.487 108.857 125.229 107.792 124.851 106.556C124.508 105.353 124.13 104.323 123.718 103.464C124.714 103.498 125.71 103.533 126.706 103.567C127.702 103.601 128.596 103.619 129.386 103.619C130.176 103.584 130.725 103.567 131.035 103.567C131.516 103.567 131.842 103.498 132.014 103.361C132.185 103.189 132.271 102.932 132.271 102.588V80.4823ZM117.019 78.7303H145.72V84.6046H117.019V78.7303ZM105.425 84.8107L110.835 79.3486L111.608 79.6578V109.957H105.425V84.8107ZM111.248 72.7014L117.122 74.9687C115.782 77.236 114.219 79.5204 112.433 81.822C110.681 84.0893 108.826 86.2363 106.868 88.2631C104.944 90.2899 103.054 92.059 101.199 93.5706C100.925 93.124 100.53 92.5743 100.014 91.9216C99.499 91.2346 98.9665 90.5475 98.4169 89.8605C97.9016 89.1734 97.4207 88.6238 96.9741 88.2116C98.7604 86.9749 100.53 85.5321 102.282 83.8832C104.034 82.1999 105.682 80.4136 107.228 78.5242C108.774 76.6004 110.114 74.6595 111.248 72.7014ZM109.289 61.4682L115.267 63.9415C113.996 65.5561 112.57 67.205 110.99 68.8883C109.41 70.5372 107.761 72.1174 106.043 73.6289C104.326 75.1405 102.642 76.463 100.993 77.5967C100.753 77.1157 100.427 76.5661 100.014 75.9477C99.6021 75.295 99.1727 74.6595 98.7261 74.0412C98.3138 73.4228 97.9188 72.9075 97.5409 72.4953C98.9837 71.6021 100.444 70.52 101.921 69.249C103.398 67.978 104.789 66.6726 106.095 65.3328C107.4 63.9587 108.465 62.6705 109.289 61.4682ZM158.963 67.8062C160.853 68.0123 162.982 68.1669 165.353 68.27C167.723 68.373 170.265 68.4245 172.979 68.4245C174.662 68.4245 176.397 68.3902 178.183 68.3215C180.004 68.2528 181.756 68.1669 183.439 68.0638C185.123 67.9608 186.617 67.8406 187.922 67.7031V74.5565C186.72 74.6595 185.26 74.7626 183.542 74.8656C181.859 74.9687 180.09 75.0546 178.235 75.1233C176.414 75.1576 174.679 75.1748 173.03 75.1748C170.351 75.1748 167.86 75.1233 165.559 75.0202C163.257 74.9172 161.059 74.7798 158.963 74.608V67.8062ZM163.292 89.6544C163.051 90.5475 162.845 91.4235 162.673 92.2823C162.501 93.1412 162.416 94 162.416 94.8588C162.416 96.5077 163.24 97.8646 164.889 98.9295C166.572 99.9945 169.269 100.527 172.979 100.527C175.315 100.527 177.565 100.441 179.729 100.269C181.893 100.098 183.937 99.8571 185.861 99.5479C187.819 99.2387 189.554 98.878 191.066 98.4658L191.117 105.731C189.606 106.075 187.922 106.367 186.067 106.607C184.212 106.882 182.203 107.088 180.038 107.226C177.909 107.397 175.641 107.483 173.237 107.483C169.32 107.483 166.04 107.054 163.395 106.195C160.749 105.336 158.774 104.1 157.469 102.485C156.163 100.836 155.511 98.8265 155.511 96.4562C155.511 94.9447 155.631 93.5706 155.871 92.3339C156.112 91.0972 156.335 89.9979 156.541 89.036L163.292 89.6544ZM234.556 88.4177C234.556 87.2841 234.264 86.2535 233.68 85.326C233.13 84.3984 232.289 83.6599 231.155 83.1102C230.056 82.5262 228.682 82.2342 227.033 82.2342C225.178 82.2342 223.374 82.3888 221.622 82.698C219.904 83.0072 218.359 83.3679 216.984 83.7801C215.645 84.158 214.528 84.4843 213.635 84.7591C212.879 84.9653 212.038 85.2573 211.11 85.6351C210.217 85.9787 209.393 86.2878 208.637 86.5627L206.679 79.194C207.572 79.1253 208.534 79.0051 209.564 78.8333C210.595 78.6616 211.522 78.4898 212.347 78.3181C213.618 78.0089 215.061 77.6825 216.675 77.339C218.324 76.9611 220.111 76.6348 222.034 76.36C223.958 76.0851 225.916 75.9477 227.909 75.9477C230.657 75.9477 233.061 76.463 235.123 77.4936C237.218 78.4898 238.85 79.9326 240.018 81.822C241.186 83.7114 241.77 85.9958 241.77 88.6753C241.77 91.4235 241.169 93.9141 239.966 96.147C238.764 98.3799 237.064 100.338 234.865 102.021C232.666 103.67 230.073 105.044 227.084 106.144C224.095 107.243 220.815 108.033 217.242 108.514L213.532 102.124C216.727 101.746 219.612 101.197 222.189 100.475C224.8 99.754 227.015 98.8437 228.836 97.7444C230.691 96.6108 232.1 95.2882 233.061 93.7767C234.058 92.2308 234.556 90.4445 234.556 88.4177ZM214.305 63.6839C215.782 63.9931 217.551 64.2851 219.612 64.5599C221.708 64.8347 223.855 65.0752 226.054 65.2813C228.286 65.4874 230.399 65.6592 232.392 65.7966C234.418 65.8996 236.102 65.9683 237.441 66.0027L236.411 72.3407C234.899 72.2377 233.13 72.1003 231.103 71.9285C229.077 71.7567 226.981 71.5678 224.817 71.3617C222.653 71.1212 220.557 70.8807 218.53 70.6403C216.538 70.3655 214.786 70.1078 213.274 69.8673L214.305 63.6839Z" fill="#D9D9D9"/>
<path d="M119.235 64.4053H144.381V70.3311H119.235V64.4053ZM132.271 80.4823H138.609V102.743C138.609 104.357 138.403 105.628 137.991 106.556C137.613 107.518 136.857 108.239 135.724 108.72C134.59 109.167 133.199 109.441 131.55 109.544C129.901 109.682 127.926 109.751 125.624 109.751C125.487 108.857 125.229 107.792 124.851 106.556C124.508 105.353 124.13 104.323 123.718 103.464C124.714 103.498 125.71 103.533 126.706 103.567C127.702 103.601 128.596 103.619 129.386 103.619C130.176 103.584 130.725 103.567 131.035 103.567C131.516 103.567 131.842 103.498 132.014 103.361C132.185 103.189 132.271 102.932 132.271 102.588V80.4823ZM117.019 78.7303H145.72V84.6046H117.019V78.7303ZM105.425 84.8107L110.835 79.3486L111.608 79.6578V109.957H105.425V84.8107ZM111.248 72.7014L117.122 74.9687C115.782 77.236 114.219 79.5204 112.433 81.822C110.681 84.0893 108.826 86.2363 106.868 88.2631C104.944 90.2899 103.054 92.059 101.199 93.5706C100.925 93.124 100.53 92.5743 100.014 91.9216C99.499 91.2346 98.9665 90.5475 98.4169 89.8605C97.9016 89.1734 97.4207 88.6238 96.9741 88.2116C98.7604 86.9749 100.53 85.5321 102.282 83.8832C104.034 82.1999 105.682 80.4136 107.228 78.5242C108.774 76.6004 110.114 74.6595 111.248 72.7014ZM109.289 61.4682L115.267 63.9415C113.996 65.5561 112.57 67.205 110.99 68.8883C109.41 70.5372 107.761 72.1174 106.043 73.6289C104.326 75.1405 102.642 76.463 100.993 77.5967C100.753 77.1157 100.427 76.5661 100.014 75.9477C99.6021 75.295 99.1727 74.6595 98.7261 74.0412C98.3138 73.4228 97.9188 72.9075 97.5409 72.4953C98.9837 71.6021 100.444 70.52 101.921 69.249C103.398 67.978 104.789 66.6726 106.095 65.3328C107.4 63.9587 108.465 62.6705 109.289 61.4682ZM158.963 67.8062C160.853 68.0123 162.982 68.1669 165.353 68.27C167.723 68.373 170.265 68.4245 172.979 68.4245C174.662 68.4245 176.397 68.3902 178.183 68.3215C180.004 68.2528 181.756 68.1669 183.439 68.0638C185.123 67.9608 186.617 67.8406 187.922 67.7031V74.5565C186.72 74.6595 185.26 74.7626 183.542 74.8656C181.859 74.9687 180.09 75.0546 178.235 75.1233C176.414 75.1576 174.679 75.1748 173.03 75.1748C170.351 75.1748 167.86 75.1233 165.559 75.0202C163.257 74.9172 161.059 74.7798 158.963 74.608V67.8062ZM163.292 89.6544C163.051 90.5475 162.845 91.4235 162.673 92.2823C162.501 93.1412 162.416 94 162.416 94.8588C162.416 96.5077 163.24 97.8646 164.889 98.9295C166.572 99.9945 169.269 100.527 172.979 100.527C175.315 100.527 177.565 100.441 179.729 100.269C181.893 100.098 183.937 99.8571 185.861 99.5479C187.819 99.2387 189.554 98.878 191.066 98.4658L191.117 105.731C189.606 106.075 187.922 106.367 186.067 106.607C184.212 106.882 182.203 107.088 180.038 107.226C177.909 107.397 175.641 107.483 173.237 107.483C169.32 107.483 166.04 107.054 163.395 106.195C160.749 105.336 158.774 104.1 157.469 102.485C156.163 100.836 155.511 98.8265 155.511 96.4562C155.511 94.9447 155.631 93.5706 155.871 92.3339C156.112 91.0972 156.335 89.9979 156.541 89.036L163.292 89.6544ZM234.556 88.4177C234.556 87.2841 234.264 86.2535 233.68 85.326C233.13 84.3984 232.289 83.6599 231.155 83.1102C230.056 82.5262 228.682 82.2342 227.033 82.2342C225.178 82.2342 223.374 82.3888 221.622 82.698C219.904 83.0072 218.359 83.3679 216.984 83.7801C215.645 84.158 214.528 84.4843 213.635 84.7591C212.879 84.9653 212.038 85.2573 211.11 85.6351C210.217 85.9787 209.393 86.2878 208.637 86.5627L206.679 79.194C207.572 79.1253 208.534 79.0051 209.564 78.8333C210.595 78.6616 211.522 78.4898 212.347 78.3181C213.618 78.0089 215.061 77.6825 216.675 77.339C218.324 76.9611 220.111 76.6348 222.034 76.36C223.958 76.0851 225.916 75.9477 227.909 75.9477C230.657 75.9477 233.061 76.463 235.123 77.4936C237.218 78.4898 238.85 79.9326 240.018 81.822C241.186 83.7114 241.77 85.9958 241.77 88.6753C241.77 91.4235 241.169 93.9141 239.966 96.147C238.764 98.3799 237.064 100.338 234.865 102.021C232.666 103.67 230.073 105.044 227.084 106.144C224.095 107.243 220.815 108.033 217.242 108.514L213.532 102.124C216.727 101.746 219.612 101.197 222.189 100.475C224.8 99.754 227.015 98.8437 228.836 97.7444C230.691 96.6108 232.1 95.2882 233.061 93.7767C234.058 92.2308 234.556 90.4445 234.556 88.4177ZM214.305 63.6839C215.782 63.9931 217.551 64.2851 219.612 64.5599C221.708 64.8347 223.855 65.0752 226.054 65.2813C228.286 65.4874 230.399 65.6592 232.392 65.7966C234.418 65.8996 236.102 65.9683 237.441 66.0027L236.411 72.3407C234.899 72.2377 233.13 72.1003 231.103 71.9285C229.077 71.7567 226.981 71.5678 224.817 71.3617C222.653 71.1212 220.557 70.8807 218.53 70.6403C216.538 70.3655 214.786 70.1078 213.274 69.8673L214.305 63.6839Z" fill="#3BD636"/>
</g>
<circle cx="311.066" cy="101.049" r="4.21863" fill="#D9D9D9"/>
<circle cx="268.897" cy="86.0956" r="4.21863" fill="#D9D9D9"/>
<circle cx="287.44" cy="71.1425" r="4.21863" fill="#D9D9D9"/>
<circle cx="311.066" cy="71.1425" r="4.21863" fill="#D9D9D9"/>
<circle cx="353.235" cy="101.049" r="4.21863" fill="#D9D9D9"/>
<circle cx="353.236" cy="71.1425" r="4.21863" fill="#D9D9D9"/>
<circle cx="371.778" cy="101.049" r="4.21863" fill="#D9D9D9"/>
</g>
<defs>
<filter id="filter0_d_218_232" x="0.0279274" y="0.0895445" width="466.915" height="179.686" filterUnits="userSpaceOnUse" color-interpolation-filters="sRGB">
<feFlood flood-opacity="0" result="BackgroundImageFix"/>
<feColorMatrix in="SourceAlpha" type="matrix" values="0 0 0 0 0 0 0 0 0 0 0 0 0 0 0 0 0 0 127 0" result="hardAlpha"/>
<feOffset dy="3.40146"/>
<feGaussianBlur stdDeviation="4.28584"/>
<feComposite in2="hardAlpha" operator="out"/>
<feColorMatrix type="matrix" values="0 0 0 0 0 0 0 0 0 0 0 0 0 0 0 0 0 0 0.25 0"/>
<feBlend mode="normal" in2="BackgroundImageFix" result="effect1_dropShadow_218_232"/>
<feBlend mode="normal" in="SourceGraphic" in2="effect1_dropShadow_218_232" result="shape"/>
</filter>
<filter id="filter1_d_218_232" x="90.8736" y="57.3688" width="156.996" height="60.6883" filterUnits="userSpaceOnUse" color-interpolation-filters="sRGB">
<feFlood flood-opacity="0" result="BackgroundImageFix"/>
<feColorMatrix in="SourceAlpha" type="matrix" values="0 0 0 0 0 0 0 0 0 0 0 0 0 0 0 0 0 0 127 0" result="hardAlpha"/>
<feOffset dy="2"/>
<feGaussianBlur stdDeviation="3.05"/>
<feComposite in2="hardAlpha" operator="out"/>
<feColorMatrix type="matrix" values="0 0 0 0 0.440956 0 0 0 0 0.440956 0 0 0 0 0.440956 0 0 0 0.62 0"/>
<feBlend mode="normal" in2="BackgroundImageFix" result="effect1_dropShadow_218_232"/>
<feBlend mode="normal" in="SourceGraphic" in2="effect1_dropShadow_218_232" result="shape"/>
</filter>
<linearGradient id="paint0_linear_218_232" x1="233.485" y1="20.9062" x2="233.485" y2="152.157" gradientUnits="userSpaceOnUse">
<stop stop-color="#707070"/>
<stop offset="1" stop-color="#727272"/>
</linearGradient>
<linearGradient id="paint1_linear_218_232" x1="156.109" y1="20.9063" x2="167.028" y2="163.098" gradientUnits="userSpaceOnUse">
<stop stop-color="#797979"/>
<stop offset="0.495192" stop-color="#A0A0A0"/>
<stop offset="1" stop-color="#888888"/>
</linearGradient>
<radialGradient id="paint2_radial_218_232" cx="0" cy="0" r="1" gradientUnits="userSpaceOnUse" gradientTransform="translate(233.485 86.5314) rotate(90) scale(65.6252 209.239)">
<stop stop-color="#A8A8A8"/>
<stop offset="1" stop-color="#727272"/>
</radialGradient>
</defs>
</svg>
