<svg width="32" height="40" viewBox="0 0 32 40" fill="none" xmlns="http://www.w3.org/2000/svg">
<path d="M26.9472 5.51541L26.8449 5.41306C23.9791 2.44496 20.1923 0.705078 15.8937 0.705078C11.5951 0.705078 7.80827 2.44496 4.94253 5.3107L4.84018 5.51541C2.07683 8.38111 0.336914 12.3727 0.336914 16.7736C0.336914 21.1745 2.0768 25.1661 4.84018 28.0318L4.94253 28.1341L15.8937 39.597L26.8449 28.2365L26.9472 28.1341C29.7106 25.2684 31.4505 21.2769 31.4505 16.7736C31.4505 12.3727 29.7106 8.38111 26.9472 5.51541ZM15.8937 21.3792C12.9256 21.3792 10.4693 18.8205 10.4693 15.7501C10.4693 14.4196 10.8787 13.2938 11.5951 12.3727C12.6186 11.0421 14.1538 10.121 15.8937 10.121C18.8617 10.121 21.3181 12.6797 21.3181 15.7501C21.3181 18.8205 18.8617 21.3792 15.8937 21.3792Z" fill="white"/>
</svg>
