<svg width="574" height="574" viewBox="0 0 574 574" fill="none" xmlns="http://www.w3.org/2000/svg">
<g filter="url(#filter0_d_218_3)">
<rect x="32.2822" y="32.2812" width="509.436" height="509.436" rx="104.5" fill="#727272"/>
<rect x="32.2822" y="32.2812" width="509.436" height="509.436" rx="104.5" fill="url(#paint0_linear_218_3)"/>
<rect x="32.2822" y="32.2812" width="509.436" height="509.436" rx="104.5" stroke="url(#paint1_linear_218_3)" stroke-width="23"/>
<rect x="55.2822" y="55.2812" width="463.436" height="463.436" rx="81.5" fill="#727272"/>
<rect x="55.2822" y="55.2812" width="463.436" height="463.436" rx="81.5" fill="url(#paint2_radial_218_3)"/>
<rect x="55.2822" y="55.2812" width="463.436" height="463.436" rx="81.5" stroke="#CDCDCD" stroke-width="23"/>
<path d="M262.49 139.525C273.873 121.526 300.126 121.526 311.509 139.525L426.433 321.237C438.645 340.547 424.771 365.738 401.924 365.738H172.076C149.229 365.738 135.354 340.547 147.566 321.237L262.49 139.525Z" fill="#D9D9D9"/>
<circle cx="226.596" cy="400.545" r="8.39445" fill="#D9D9D9"/>
<circle cx="226.596" cy="430.299" r="8.39445" fill="#D9D9D9"/>
<circle cx="263.492" cy="430.299" r="8.39445" fill="#D9D9D9"/>
<circle cx="263.492" cy="460.055" r="8.39445" fill="#D9D9D9"/>
<circle cx="310.507" cy="430.299" r="8.39445" fill="#D9D9D9"/>
<circle cx="347.403" cy="460.055" r="8.39445" fill="#D9D9D9"/>
</g>
<defs>
<filter id="filter0_d_218_3" x="8.18223" y="13.1812" width="557.636" height="557.636" filterUnits="userSpaceOnUse" color-interpolation-filters="sRGB">
<feFlood flood-opacity="0" result="BackgroundImageFix"/>
<feColorMatrix in="SourceAlpha" type="matrix" values="0 0 0 0 0 0 0 0 0 0 0 0 0 0 0 0 0 0 127 0" result="hardAlpha"/>
<feOffset dy="5"/>
<feGaussianBlur stdDeviation="6.3"/>
<feComposite in2="hardAlpha" operator="out"/>
<feColorMatrix type="matrix" values="0 0 0 0 0 0 0 0 0 0 0 0 0 0 0 0 0 0 0.25 0"/>
<feBlend mode="normal" in2="BackgroundImageFix" result="effect1_dropShadow_218_3"/>
<feBlend mode="normal" in="SourceGraphic" in2="effect1_dropShadow_218_3" result="shape"/>
</filter>
<linearGradient id="paint0_linear_218_3" x1="287" y1="43.7812" x2="287" y2="530.217" gradientUnits="userSpaceOnUse">
<stop stop-color="#707070"/>
<stop offset="1" stop-color="#727272"/>
</linearGradient>
<linearGradient id="paint1_linear_218_3" x1="197.058" y1="43.7813" x2="319.507" y2="543.897" gradientUnits="userSpaceOnUse">
<stop stop-color="#797979"/>
<stop offset="0.495192" stop-color="#A0A0A0"/>
<stop offset="1" stop-color="#888888"/>
</linearGradient>
<radialGradient id="paint2_radial_218_3" cx="0" cy="0" r="1" gradientUnits="userSpaceOnUse" gradientTransform="translate(287 286.999) rotate(90) scale(243.218)">
<stop stop-color="#A8A8A8"/>
<stop offset="1" stop-color="#727272"/>
</radialGradient>
</defs>
</svg>
