<svg width="574" height="574" viewBox="0 0 574 574" fill="none" xmlns="http://www.w3.org/2000/svg">
<g filter="url(#filter0_d_218_72)">
<rect x="32.2822" y="32.2812" width="509.436" height="509.436" rx="104.5" fill="#727272"/>
<rect x="32.2822" y="32.2812" width="509.436" height="509.436" rx="104.5" fill="url(#paint0_linear_218_72)"/>
<rect x="32.2822" y="32.2812" width="509.436" height="509.436" rx="104.5" stroke="url(#paint1_linear_218_72)" stroke-width="23"/>
<rect x="55.2822" y="55.2812" width="463.436" height="463.436" rx="81.5" fill="#727272"/>
<rect x="55.2822" y="55.2812" width="463.436" height="463.436" rx="81.5" fill="url(#paint2_radial_218_72)"/>
<rect x="55.2822" y="55.2812" width="463.436" height="463.436" rx="81.5" stroke="#2BE886" stroke-width="23"/>
<path d="M267.139 142.465C276.363 127.88 297.636 127.88 306.86 142.465L421.785 324.177C431.681 339.824 420.438 360.238 401.924 360.238H172.076C153.562 360.238 142.319 339.824 152.215 324.177L267.139 142.465Z" fill="#AEEAC3" stroke="#C7FFDE" stroke-width="11"/>
<circle cx="226.596" cy="400.545" r="8.39445" fill="#D9D9D9"/>
<circle cx="226.596" cy="430.299" r="8.39445" fill="#D9D9D9"/>
<circle cx="263.492" cy="430.299" r="8.39445" fill="#D9D9D9"/>
<circle cx="263.492" cy="460.055" r="8.39445" fill="#D9D9D9"/>
<circle cx="310.507" cy="430.299" r="8.39445" fill="#D9D9D9"/>
<circle cx="347.403" cy="460.055" r="8.39445" fill="#D9D9D9"/>
</g>
<defs>
<filter id="filter0_d_218_72" x="8.18223" y="13.1812" width="557.636" height="557.636" filterUnits="userSpaceOnUse" color-interpolation-filters="sRGB">
<feFlood flood-opacity="0" result="BackgroundImageFix"/>
<feColorMatrix in="SourceAlpha" type="matrix" values="0 0 0 0 0 0 0 0 0 0 0 0 0 0 0 0 0 0 127 0" result="hardAlpha"/>
<feOffset dy="5"/>
<feGaussianBlur stdDeviation="6.3"/>
<feComposite in2="hardAlpha" operator="out"/>
<feColorMatrix type="matrix" values="0 0 0 0 0 0 0 0 0 0 0 0 0 0 0 0 0 0 0.25 0"/>
<feBlend mode="normal" in2="BackgroundImageFix" result="effect1_dropShadow_218_72"/>
<feBlend mode="normal" in="SourceGraphic" in2="effect1_dropShadow_218_72" result="shape"/>
</filter>
<linearGradient id="paint0_linear_218_72" x1="287" y1="43.7812" x2="287" y2="530.217" gradientUnits="userSpaceOnUse">
<stop stop-color="#707070"/>
<stop offset="1" stop-color="#727272"/>
</linearGradient>
<linearGradient id="paint1_linear_218_72" x1="197.058" y1="43.7813" x2="319.507" y2="543.897" gradientUnits="userSpaceOnUse">
<stop stop-color="#797979"/>
<stop offset="0.495192" stop-color="#A0A0A0"/>
<stop offset="1" stop-color="#888888"/>
</linearGradient>
<radialGradient id="paint2_radial_218_72" cx="0" cy="0" r="1" gradientUnits="userSpaceOnUse" gradientTransform="translate(287 286.999) rotate(90) scale(243.218)">
<stop stop-color="#A8A8A8"/>
<stop offset="1" stop-color="#727272"/>
</radialGradient>
</defs>
</svg>
