<svg width="110" height="111" viewBox="0 0 110 111" fill="none" xmlns="http://www.w3.org/2000/svg">
<path d="M93.1785 64.913C100.512 60.6791 100.512 50.0943 93.1785 45.8604L44.2351 17.603C36.9018 13.3691 27.7351 18.6614 27.7351 27.1293L27.7351 83.6442C27.7351 92.112 36.9018 97.4044 44.2351 93.1705L93.1785 64.913Z" fill="#5D55FF"/>
<path d="M39.7381 44.0421H66.3781V47.5521H39.7381V44.0421ZM47.8681 61.9821H61.8181V65.4621H47.8681V61.9821ZM45.7381 52.4121H64.3081V66.9921H60.5281V55.8921H49.3381V67.1421H45.7381V52.4121ZM49.5181 38.9121L53.2981 39.6321C52.8181 41.7121 52.2281 43.7821 51.5281 45.8421C50.8481 47.8821 50.0181 49.8621 49.0381 51.7821C48.0781 53.6821 46.9381 55.4521 45.6181 57.0921C44.3181 58.7121 42.7981 60.1421 41.0581 61.3821C40.8981 61.1021 40.6681 60.7821 40.3681 60.4221C40.0881 60.0621 39.7981 59.7121 39.4981 59.3721C39.1981 59.0121 38.9181 58.7221 38.6581 58.5021C40.2381 57.4221 41.6281 56.1421 42.8281 54.6621C44.0281 53.1821 45.0581 51.5821 45.9181 49.8621C46.7981 48.1221 47.5281 46.3221 48.1081 44.4621C48.7081 42.6021 49.1781 40.7521 49.5181 38.9121Z" fill="white"/>
</svg>
