<svg width="110" height="111" viewBox="0 0 110 111" fill="none" xmlns="http://www.w3.org/2000/svg">
<path d="M16.6094 64.913C9.27603 60.6791 9.27604 50.0943 16.6094 45.8604L65.5527 17.603C72.8861 13.3691 82.0527 18.6614 82.0527 27.1293L82.0527 83.6442C82.0527 92.112 72.8861 97.4044 65.5527 93.1705L16.6094 64.913Z" fill="#5D55FF"/>
<path d="M39.4868 43.9821H66.0068V47.4321H39.4868V43.9821ZM48.3368 52.0521H65.4068V55.5021H48.3368V52.0521ZM45.0968 62.9721H66.4868V66.4521H45.0968V62.9721ZM54.2468 53.7321H57.9368V64.8621H54.2468V53.7321ZM48.2468 38.9121L52.0268 39.3921C51.6268 41.7921 51.1268 44.2121 50.5268 46.6521C49.9268 49.0721 49.1868 51.4421 48.3068 53.7621C47.4268 56.0621 46.3568 58.2221 45.0968 60.2421C43.8568 62.2421 42.3668 64.0121 40.6268 65.5521C40.4468 65.2921 40.2168 64.9721 39.9368 64.5921C39.6568 64.2321 39.3668 63.8821 39.0668 63.5421C38.7868 63.2021 38.5168 62.9121 38.2568 62.6721C39.8168 61.3321 41.1568 59.7521 42.2768 57.9321C43.4168 56.0921 44.3768 54.1121 45.1568 51.9921C45.9368 49.8721 46.5668 47.7021 47.0468 45.4821C47.5468 43.2421 47.9468 41.0521 48.2468 38.9121Z" fill="white"/>
</svg>
